<?xml version="1.0" standalone="no"?>
<!DOCTYPE svg PUBLIC "-//W3C//DTD SVG 20010904//EN"
 "http://www.w3.org/TR/2001/REC-SVG-20010904/DTD/svg10.dtd">
<svg version="1.0" xmlns="http://www.w3.org/2000/svg"
 width="32.000000pt" height="32.000000pt" viewBox="0 0 32.000000 32.000000"
 preserveAspectRatio="xMidYMid meet">
<metadata>
Created by potrace 1.16, written by Peter Selinger 2001-2019
</metadata>
<g transform="translate(0.000000,32.000000) scale(0.100000,-0.100000)"
fill="#000000" stroke="none">
<path d="M131 306 c-7 -9 -8 -17 -2 -20 15 -10 1 -39 -35 -69 -28 -23 -37 -26
-54 -17 -17 9 -22 7 -29 -12 -11 -29 5 -62 26 -54 8 3 19 3 24 0 16 -10 -11
-34 -37 -34 -22 0 -24 -4 -24 -50 l0 -50 160 0 160 0 0 50 0 50 -37 0 c-37 1
-79 21 -67 33 3 3 18 1 34 -3 22 -6 32 -4 46 11 32 35 22 76 -12 48 -11 -9
-18 -8 -34 6 -11 10 -20 25 -20 35 0 15 -68 90 -82 90 -3 0 -11 -6 -17 -14z
m58 -30 c24 -24 32 -41 28 -55 -3 -12 -1 -19 3 -16 5 3 16 -5 24 -17 14 -19
19 -21 36 -10 11 6 21 12 23 12 10 0 2 -27 -12 -42 -14 -14 -21 -15 -53 -3
-21 7 -35 8 -32 3 3 -5 0 -16 -8 -25 -7 -9 -8 -14 -3 -11 6 4 17 3 25 -3 10
-5 -16 -9 -74 -9 l-89 0 18 20 c20 22 30 54 14 44 -5 -3 -7 -9 -5 -13 3 -4
-10 -7 -29 -7 -19 0 -31 4 -29 8 3 4 -1 8 -8 9 -7 0 -4 4 7 9 11 5 14 9 8 9
-7 1 -13 5 -13 11 0 6 9 5 24 -1 21 -10 28 -8 50 16 19 20 29 25 38 17 10 -8
13 -3 13 21 0 18 -4 37 -7 43 -7 11 -1 24 12 24 3 0 21 -15 39 -34z"/>
</g>
</svg>
